<?xml version="1.0" encoding="UTF-8"?>
<!DOCTYPE svg PUBLIC "-//W3C//DTD SVG 1.1//EN" "http://www.w3.org/Graphics/SVG/1.1/DTD/svg11.dtd">
<svg xmlns="http://www.w3.org/2000/svg" version="1.1" width="225px" height="224px" style="shape-rendering:geometricPrecision; text-rendering:geometricPrecision; image-rendering:optimizeQuality; fill-rule:evenodd; clip-rule:evenodd" xmlns:xlink="http://www.w3.org/1999/xlink">
<g><path style="opacity:0.902" fill="#070c63" d="M 142.5,28.5 C 143.167,29.8333 143.833,31.1667 144.5,32.5C 145.662,38.3857 145.662,44.219 144.5,50C 144.167,50.1667 143.833,50.3333 143.5,50.5C 141.389,46.7448 140.723,42.9115 141.5,39C 141.392,37.3189 140.725,36.1522 139.5,35.5C 139.672,34.5084 139.338,33.8417 138.5,33.5C 136.901,32.438 135.234,32.438 133.5,33.5C 131.793,32.1274 130.46,30.4607 129.5,28.5C 129.44,27.9569 129.107,27.6236 128.5,27.5C 125.663,28.5095 124.33,30.5095 124.5,33.5C 121.941,33.1984 119.607,33.5318 117.5,34.5C 116.661,33.3588 115.994,32.0255 115.5,30.5C 116.524,29.1482 117.524,27.8149 118.5,26.5C 118.953,25.5416 119.619,24.7083 120.5,24C 128.921,20.9786 136.254,22.4786 142.5,28.5 Z"/></g>
<g><path style="opacity:0.016" fill="#000040" d="M 142.5,27.5 C 143.833,28.1667 143.833,28.1667 142.5,27.5 Z"/></g>
<g><path style="opacity:0.008" fill="#000000" d="M 145.5,31.5 C 146.833,32.1667 146.833,32.1667 145.5,31.5 Z"/></g>
<g><path style="opacity:1" fill="#050a4e" d="M 118.5,26.5 C 117.524,27.8149 116.524,29.1482 115.5,30.5C 115.994,32.0255 116.661,33.3588 117.5,34.5C 119.607,33.5318 121.941,33.1984 124.5,33.5C 124.33,30.5095 125.663,28.5095 128.5,27.5C 129.107,27.6236 129.44,27.9569 129.5,28.5C 127.661,29.5077 126.328,31.0077 125.5,33C 126.167,33.3333 126.833,33.6667 127.5,34C 126.167,35 126.167,36 127.5,37C 129.134,37.4935 130.801,37.6602 132.5,37.5C 132.433,36.0413 132.766,34.7079 133.5,33.5C 135.234,32.438 136.901,32.438 138.5,33.5C 138.096,34.7564 137.429,35.9231 136.5,37C 136.743,37.9021 137.077,38.7354 137.5,39.5C 140.555,40.0908 141.222,38.7575 139.5,35.5C 140.725,36.1522 141.392,37.3189 141.5,39C 140.723,42.9115 141.389,46.7448 143.5,50.5C 143.833,50.3333 144.167,50.1667 144.5,50C 145.662,44.219 145.662,38.3857 144.5,32.5C 144.833,32.5 145.167,32.5 145.5,32.5C 146.242,35.9728 146.909,39.4728 147.5,43C 146.888,45.141 146.888,47.141 147.5,49C 146.177,49.8159 145.511,50.9826 145.5,52.5C 137.779,63.3402 128.112,65.5069 116.5,59C 113.962,55.63 111.629,52.13 109.5,48.5C 110.833,46.1667 110.833,43.8333 109.5,41.5C 110.209,38.6156 111.209,35.949 112.5,33.5C 109.924,42.1784 111.59,49.8451 117.5,56.5C 118.736,57.2458 120.07,57.5792 121.5,57.5C 121.5,58.5 121.5,59.5 121.5,60.5C 130.487,63.1523 137.487,60.6523 142.5,53C 140.942,52.79 139.609,52.29 138.5,51.5C 139.478,51.189 140.145,50.5223 140.5,49.5C 139.359,48.5745 139.359,47.7412 140.5,47C 137.166,45.651 133.666,43.8176 130,41.5C 126.54,42.5966 125.373,44.7633 126.5,48C 124.722,50.1354 124.055,52.6354 124.5,55.5C 124.028,53.4687 123.028,51.8021 121.5,50.5C 122.241,46.2602 120.241,44.5935 115.5,45.5C 116.164,41.5718 115.997,37.5718 115,33.5C 114.329,32.7476 113.496,32.4142 112.5,32.5C 113.163,29.8258 115.163,27.8258 118.5,26.5 Z M 117.5,34.5 C 119.405,34.5928 121.238,34.9262 123,35.5C 125.145,37.8953 124.978,40.062 122.5,42C 121.913,41.0834 120.413,40.2501 118,39.5C 117.506,37.8659 117.34,36.1992 117.5,34.5 Z M 138.5,33.5 C 139.338,33.8417 139.672,34.5084 139.5,35.5C 141.222,38.7575 140.555,40.0908 137.5,39.5C 137.077,38.7354 136.743,37.9021 136.5,37C 137.429,35.9231 138.096,34.7564 138.5,33.5 Z M 138.5,51.5 C 135.015,51.8303 131.848,53.4969 129,56.5C 127.571,56.5302 126.071,56.1969 124.5,55.5C 124.055,52.6354 124.722,50.1354 126.5,48C 125.373,44.7633 126.54,42.5966 130,41.5C 133.666,43.8176 137.166,45.651 140.5,47C 139.359,47.7412 139.359,48.5745 140.5,49.5C 140.145,50.5223 139.478,51.189 138.5,51.5 Z M 115.5,45.5 C 120.241,44.5935 122.241,46.2602 121.5,50.5C 120.293,49.8112 118.959,49.6446 117.5,50C 116.733,48.5295 116.067,47.0295 115.5,45.5 Z"/></g>
<g><path style="opacity:0.008" fill="#000000" d="M 145.5,52.5 C 146.833,53.1667 146.833,53.1667 145.5,52.5 Z"/></g>
<g><path style="opacity:0.278" fill="#312e3f" d="M 78.5,57.5 C 78.5,58.1667 78.5,58.8333 78.5,59.5C 77.6618,59.8417 77.3284,60.5084 77.5,61.5C 77.5,61.8333 77.5,62.1667 77.5,62.5C 77.5,63.5 77.5,64.5 77.5,65.5C 76.8333,66.1667 76.1667,66.8333 75.5,67.5C 75.5111,65.4534 75.8444,63.4534 76.5,61.5C 76.5466,59.9623 75.8799,58.9623 74.5,58.5C 75.6654,56.8906 76.9988,56.5573 78.5,57.5 Z"/></g>
<g><path style="opacity:1" fill="#070d68" d="M 112.5,32.5 C 113.496,32.4142 114.329,32.7476 115,33.5C 115.997,37.5718 116.164,41.5718 115.5,45.5C 116.067,47.0295 116.733,48.5295 117.5,50C 118.959,49.6446 120.293,49.8112 121.5,50.5C 123.028,51.8021 124.028,53.4687 124.5,55.5C 126.071,56.1969 127.571,56.5302 129,56.5C 131.848,53.4969 135.015,51.8303 138.5,51.5C 139.609,52.29 140.942,52.79 142.5,53C 137.487,60.6523 130.487,63.1523 121.5,60.5C 121.5,59.5 121.5,58.5 121.5,57.5C 120.07,57.5792 118.736,57.2458 117.5,56.5C 111.59,49.8451 109.924,42.1784 112.5,33.5C 112.5,33.1667 112.5,32.8333 112.5,32.5 Z"/></g>
<g><path style="opacity:0.051" fill="#101c1c" d="M 73.5,61.5 C 72.475,61.1034 72.3083,60.4368 73,59.5C 73.4643,60.0944 73.631,60.7611 73.5,61.5 Z"/></g>
<g><path style="opacity:0.004" fill="#000000" d="M 141.5,61.5 C 140.833,60.1667 140.833,60.1667 141.5,61.5 Z"/></g>
<g><path style="opacity:1" fill="#040845" d="M 145.5,58.5 C 142.884,65.0596 137.884,68.0596 130.5,67.5C 128.631,67.4932 126.964,67.1599 125.5,66.5C 129.582,66.6564 133.582,66.1564 137.5,65C 138.605,63.4144 139.939,62.2477 141.5,61.5C 142.833,60.5 144.167,59.5 145.5,58.5 Z"/></g>
<g><path style="opacity:0.212" fill="#b39433" d="M 95.5,70.5 C 95.3893,71.1174 95.056,71.6174 94.5,72C 95.5156,72.5194 96.1822,73.3527 96.5,74.5C 95.8251,77.6913 94.6585,80.6913 93,83.5C 92.0737,88.6602 93.2404,93.3268 96.5,97.5C 97.9397,98.9524 99.6064,99.9524 101.5,100.5C 99.7369,102.878 97.7369,102.878 95.5,100.5C 90.6671,93.5222 89.1671,85.8556 91,77.5C 87.9627,76.2907 84.796,75.4574 81.5,75C 80.2744,73.3651 78.941,71.8651 77.5,70.5C 76.3377,75.467 76.1711,80.467 77,85.5C 79.2824,91.897 82.1157,97.897 85.5,103.5C 83.1394,101.806 81.1394,99.8061 79.5,97.5C 75.8656,88.2193 74.5323,78.5526 75.5,68.5C 75.5,68.1667 75.5,67.8333 75.5,67.5C 76.1667,66.8333 76.8333,66.1667 77.5,65.5C 77.8333,65.5 78.1667,65.5 78.5,65.5C 78.7373,64.209 78.404,63.209 77.5,62.5C 77.5,62.1667 77.5,61.8333 77.5,61.5C 78.3382,61.1583 78.6716,60.4916 78.5,59.5C 78.5,58.8333 78.5,58.1667 78.5,57.5C 82.525,48.5142 88.8584,46.5142 97.5,51.5C 103.4,58.7085 102.733,65.0418 95.5,70.5 Z M 78.5,65.5 C 82.0745,70.5433 87.0745,73.0433 93.5,73C 85.9212,75.6867 80.9212,73.1867 78.5,65.5 Z"/></g>
<g><path style="opacity:1" fill="#c79206" d="M 95.5,70.5 C 91.2202,72.3467 87.5536,71.5133 84.5,68C 81.1759,64.5832 79.8426,60.4165 80.5,55.5C 83.5,55.8333 84.8333,54.5 84.5,51.5C 92.8304,49.0904 97.497,52.0904 98.5,60.5C 97.4232,63.8711 96.4232,67.2044 95.5,70.5 Z"/></g>
<g><path style="opacity:1" fill="#020e73" d="M 145.5,99.5 C 143.668,106.269 140.334,111.935 135.5,116.5C 130.071,119.413 124.737,122.58 119.5,126C 110.131,127.974 100.797,127.807 91.5,125.5C 86.9107,124.229 83.5774,121.562 81.5,117.5C 80.5364,113.692 78.8697,110.192 76.5,107C 77.4087,104.451 79.242,102.951 82,102.5C 83.7527,104.758 85.9193,106.425 88.5,107.5C 91.3405,109.223 94.3405,110.557 97.5,111.5C 103.494,112.911 109.494,112.411 115.5,110C 116.756,109.583 117.423,108.75 117.5,107.5C 120.132,105.887 122.798,104.22 125.5,102.5C 129.027,93.2632 129.361,83.9299 126.5,74.5C 126.39,72.626 127.056,71.126 128.5,70C 126.256,67.6514 125.089,68.1514 125,71.5C 123.108,70.3826 122.275,68.7159 122.5,66.5C 123.5,66.5 124.5,66.5 125.5,66.5C 126.964,67.1599 128.631,67.4932 130.5,67.5C 137.884,68.0596 142.884,65.0596 145.5,58.5C 147.624,57.9688 149.124,56.6355 150,54.5C 150.765,63.5411 150.431,72.5411 149,81.5C 148.5,82.6667 147.667,83.5 146.5,84C 147.116,85.4002 147.449,86.9002 147.5,88.5C 146.989,92.2072 146.322,95.8738 145.5,99.5 Z"/></g>
<g><path style="opacity:0.702" fill="#756652" d="M 123.5,74.5 C 125.311,76.3854 126.478,78.7187 127,81.5C 127.667,85.5 127.667,89.5 127,93.5C 126.722,94.4158 126.222,95.0825 125.5,95.5C 126.995,90.1138 126.828,84.7804 125,79.5C 124.617,80.056 124.117,80.3893 123.5,80.5C 123.5,78.5 123.5,76.5 123.5,74.5 Z"/></g>
<g><path style="opacity:0.973" fill="#05094f" d="M 145.5,99.5 C 146.322,95.8738 146.989,92.2072 147.5,88.5C 147.449,86.9002 147.116,85.4002 146.5,84C 147.667,83.5 148.5,82.6667 149,81.5C 150.431,72.5411 150.765,63.5411 150,54.5C 149.124,56.6355 147.624,57.9688 145.5,58.5C 147.616,54.3993 149.282,50.0659 150.5,45.5C 152.036,51.372 152.702,57.372 152.5,63.5C 152.77,75.7322 150.77,87.2322 146.5,98C 147.712,99.1068 147.379,99.6068 145.5,99.5 Z"/></g>
<g><path style="opacity:1" fill="#15104c" d="M 125.5,66.5 C 124.5,66.5 123.5,66.5 122.5,66.5C 122.275,68.7159 123.108,70.3826 125,71.5C 125.089,68.1514 126.256,67.6514 128.5,70C 127.056,71.126 126.39,72.626 126.5,74.5C 129.361,83.9299 129.027,93.2632 125.5,102.5C 122.798,104.22 120.132,105.887 117.5,107.5C 117.833,106.833 118.167,106.167 118.5,105.5C 122.324,103.177 124.657,99.8441 125.5,95.5C 126.222,95.0825 126.722,94.4158 127,93.5C 127.667,89.5 127.667,85.5 127,81.5C 126.478,78.7187 125.311,76.3854 123.5,74.5C 122.099,71.3661 120.432,68.3661 118.5,65.5C 118.833,64.8333 119.167,64.1667 119.5,63.5C 121.604,64.5195 123.604,65.5195 125.5,66.5 Z"/></g>
<g><path style="opacity:1" fill="#c89208" d="M 101.5,100.5 C 102.995,100.989 104.329,101.655 105.5,102.5C 108.045,103.504 111.379,103.837 115.5,103.5C 115.5,104.5 115.5,105.5 115.5,106.5C 113.738,106.643 112.071,106.309 110.5,105.5C 109.646,106.522 108.646,107.355 107.5,108C 107.833,108.333 108.167,108.667 108.5,109C 103.833,109.667 99.1667,109.667 94.5,109C 91.3537,107.343 88.3537,105.509 85.5,103.5C 82.1157,97.897 79.2824,91.897 77,85.5C 76.1711,80.467 76.3377,75.467 77.5,70.5C 78.941,71.8651 80.2744,73.3651 81.5,75C 84.796,75.4574 87.9627,76.2907 91,77.5C 89.1671,85.8556 90.6671,93.5222 95.5,100.5C 97.7369,102.878 99.7369,102.878 101.5,100.5 Z"/></g>
<g><path style="opacity:1" fill="#3a284f" d="M 75.5,68.5 C 74.5323,78.5526 75.8656,88.2193 79.5,97.5C 78.5041,97.5858 77.6708,97.2524 77,96.5C 74.8272,92.4901 73.9939,88.1568 74.5,83.5C 74.1795,78.3054 74.5128,73.3054 75.5,68.5 Z"/></g>
<g><path style="opacity:1" fill="#050e72" d="M 74.5,83.5 C 73.9939,88.1568 74.8272,92.4901 77,96.5C 77.6708,97.2524 78.5041,97.5858 79.5,97.5C 79.5,98.8333 79.5,100.167 79.5,101.5C 77.5328,101.739 75.6995,101.406 74,100.5C 71.5674,94.3088 71.0674,87.9755 72.5,81.5C 73.1818,82.2427 73.8485,82.9094 74.5,83.5 Z"/></g>
<g><path style="opacity:1" fill="#0c0d56" d="M 74.5,58.5 C 75.8799,58.9623 76.5466,59.9623 76.5,61.5C 75.8444,63.4534 75.5111,65.4534 75.5,67.5C 75.5,67.8333 75.5,68.1667 75.5,68.5C 74.5128,73.3054 74.1795,78.3054 74.5,83.5C 73.8485,82.9094 73.1818,82.2427 72.5,81.5C 71.0674,87.9755 71.5674,94.3088 74,100.5C 75.6995,101.406 77.5328,101.739 79.5,101.5C 79.5,100.167 79.5,98.8333 79.5,97.5C 81.1394,99.8061 83.1394,101.806 85.5,103.5C 86.5,104.833 87.5,106.167 88.5,107.5C 85.9193,106.425 83.7527,104.758 82,102.5C 79.242,102.951 77.4087,104.451 76.5,107C 78.8697,110.192 80.5364,113.692 81.5,117.5C 75.6614,111.483 72.1614,104.15 71,95.5C 70.3755,89.7765 69.8755,84.2765 69.5,79C 70.5903,73.1366 71.9237,67.3033 73.5,61.5C 74.404,60.791 74.7373,59.791 74.5,58.5 Z"/></g>
<g><path style="opacity:1" fill="#bc9224" d="M 125.5,95.5 C 124.657,99.8441 122.324,103.177 118.5,105.5C 117.391,105.557 116.391,105.89 115.5,106.5C 115.5,105.5 115.5,104.5 115.5,103.5C 111.379,103.837 108.045,103.504 105.5,102.5C 117.657,100.333 123.657,92.9997 123.5,80.5C 124.117,80.3893 124.617,80.056 125,79.5C 126.828,84.7804 126.995,90.1138 125.5,95.5 Z"/></g>
<g><path style="opacity:1" fill="#a9853f" d="M 85.5,103.5 C 88.3537,105.509 91.3537,107.343 94.5,109C 99.1667,109.667 103.833,109.667 108.5,109C 108.167,108.667 107.833,108.333 107.5,108C 108.646,107.355 109.646,106.522 110.5,105.5C 112.071,106.309 113.738,106.643 115.5,106.5C 116.391,105.89 117.391,105.557 118.5,105.5C 118.167,106.167 117.833,106.833 117.5,107.5C 111.138,110.285 104.472,111.619 97.5,111.5C 94.3405,110.557 91.3405,109.223 88.5,107.5C 87.5,106.167 86.5,104.833 85.5,103.5 Z"/></g>
<g><path style="opacity:1" fill="#181246" d="M 117.5,107.5 C 117.423,108.75 116.756,109.583 115.5,110C 109.494,112.411 103.494,112.911 97.5,111.5C 104.472,111.619 111.138,110.285 117.5,107.5 Z"/></g>
<g><path style="opacity:0.027" fill="#000024" d="M 130.5,121.5 C 131.833,122.167 131.833,122.167 130.5,121.5 Z"/></g>
<g><path style="opacity:0.549" fill="#020745" d="M 135.5,116.5 C 134.139,118.527 132.473,120.194 130.5,121.5C 118.214,130.161 105.214,131.494 91.5,125.5C 100.797,127.807 110.131,127.974 119.5,126C 124.737,122.58 130.071,119.413 135.5,116.5 Z"/></g>
<g><path style="opacity:1" fill="#be9622" d="M 147.5,142.5 C 145.396,142.707 143.063,142.874 140.5,143C 137.967,144.916 137.967,146.916 140.5,149C 139.271,150.529 137.771,151.696 136,152.5C 134.84,157.152 136.673,159.152 141.5,158.5C 141.5,157.5 141.5,156.5 141.5,155.5C 143.988,155.181 143.655,155.181 140.5,155.5C 139.957,155.44 139.624,155.107 139.5,154.5C 140.098,153.205 140.598,151.872 141,150.5C 142,153.167 143,153.167 144,150.5C 145.552,153.153 145.385,155.819 143.5,158.5C 144.243,159.182 144.909,159.849 145.5,160.5C 141.254,162.203 137.421,161.536 134,158.5C 133.626,159.416 133.126,160.25 132.5,161C 122.005,163.344 116.838,159.177 117,148.5C 115.667,149.167 114.333,149.833 113,150.5C 112.213,154.179 111.379,157.846 110.5,161.5C 108.402,162.484 106.402,162.151 104.5,160.5C 99.5544,161.614 94.5544,161.781 89.5,161C 88.3333,160.5 87.5,159.667 87,158.5C 85.8018,162.214 83.4685,163.214 80,161.5C 79.8265,157.459 79.3265,153.459 78.5,149.5C 77.8165,149.137 77.1499,148.804 76.5,148.5C 74.5772,152.029 73.9106,156.029 74.5,160.5C 72.8333,160.5 71.1667,160.5 69.5,160.5C 69.815,156.629 69.4816,152.962 68.5,149.5C 67.609,148.89 66.609,148.557 65.5,148.5C 64.8826,148.611 64.3826,148.944 64,149.5C 63.5014,153.152 63.3347,156.818 63.5,160.5C 61.8333,160.5 60.1667,160.5 58.5,160.5C 58.8205,155.305 58.4872,150.305 57.5,145.5C 57.0772,142.757 58.2439,141.424 61,141.5C 67.8148,141.879 74.6481,142.045 81.5,142C 82.5786,142.956 83.7453,143.789 85,144.5C 85.1705,146.715 85.8372,148.715 87,150.5C 89.8055,149.527 90.3055,147.86 88.5,145.5C 89.0096,143.912 90.0096,142.745 91.5,142C 97.9878,139.838 102.154,142.005 104,148.5C 103.926,141.88 106.593,140.214 112,143.5C 116.099,140.277 118.433,141.277 119,146.5C 120.664,142.916 123.497,141.249 127.5,141.5C 133.392,141.059 135.725,143.725 134.5,149.5C 132.266,149.62 130.099,149.287 128,148.5C 124.355,149.938 123.689,151.938 126,154.5C 128.407,155.196 130.74,155.529 133,155.5C 133.878,152.785 135.378,150.451 137.5,148.5C 135.638,143.512 137.471,141.179 143,141.5C 144.592,141.605 146.092,141.939 147.5,142.5 Z M 94.5,153.5 C 97.1368,155.154 96.8034,155.654 93.5,155C 94.056,154.617 94.3893,154.117 94.5,153.5 Z M 140.5,155.5 C 143.655,155.181 143.988,155.181 141.5,155.5C 141.167,155.5 140.833,155.5 140.5,155.5 Z"/></g>
<g><path style="opacity:1" fill="#bf9017" d="M 147.5,142.5 C 149.173,143.343 150.34,144.676 151,146.5C 151.694,149.468 152.194,152.468 152.5,155.5C 152.514,160.846 150.181,162.512 145.5,160.5C 144.909,159.849 144.243,159.182 143.5,158.5C 145.385,155.819 145.552,153.153 144,150.5C 143,153.167 142,153.167 141,150.5C 140.598,151.872 140.098,153.205 139.5,154.5C 139.624,155.107 139.957,155.44 140.5,155.5C 140.833,155.5 141.167,155.5 141.5,155.5C 141.5,156.5 141.5,157.5 141.5,158.5C 136.673,159.152 134.84,157.152 136,152.5C 137.771,151.696 139.271,150.529 140.5,149C 137.967,146.916 137.967,144.916 140.5,143C 143.063,142.874 145.396,142.707 147.5,142.5 Z M 140.5,155.5 C 143.655,155.181 143.988,155.181 141.5,155.5C 141.167,155.5 140.833,155.5 140.5,155.5 Z"/></g>
<g><path style="opacity:0.271" fill="#b79b48" d="M 57.5,145.5 C 58.4872,150.305 58.8205,155.305 58.5,160.5C 60.1667,160.5 61.8333,160.5 63.5,160.5C 63.3347,156.818 63.5014,153.152 64,149.5C 64.3826,148.944 64.8826,148.611 65.5,148.5C 64.8694,152.804 64.3694,157.137 64,161.5C 62.6124,162.554 61.1124,162.72 59.5,162C 57.5798,156.803 56.9132,151.303 57.5,145.5 Z"/></g>
<g><path style="opacity:0.278" fill="#af9d50" d="M 76.5,148.5 C 75.1998,152.334 75.1998,156.168 76.5,160C 74.2503,161.652 71.917,162.152 69.5,161.5C 68.5091,157.555 68.1758,153.555 68.5,149.5C 69.4816,152.962 69.815,156.629 69.5,160.5C 71.1667,160.5 72.8333,160.5 74.5,160.5C 73.9106,156.029 74.5772,152.029 76.5,148.5 Z"/></g>
<g><path style="opacity:0.008" fill="#000000" d="M 104.5,169.5 C 103.833,168.167 103.833,168.167 104.5,169.5 Z"/></g>
<g><path style="opacity:0.008" fill="#000000" d="M 180.5,168.5 C 181.833,169.167 181.833,169.167 180.5,168.5 Z"/></g>
<g><path style="opacity:0.008" fill="#000000" d="M 93.5,169.5 C 94.8333,170.167 94.8333,170.167 93.5,169.5 Z"/></g>
<g><path style="opacity:1" fill="#060d5a" d="M 125.5,177.5 C 122.715,174.894 119.715,172.394 116.5,170C 114.098,169.186 111.765,169.353 109.5,170.5C 110.689,171.429 112.022,171.762 113.5,171.5C 113.5,172.833 113.5,174.167 113.5,175.5C 114.833,175.5 116.167,175.5 117.5,175.5C 117.785,177.288 117.452,178.955 116.5,180.5C 115.702,180.043 115.369,179.376 115.5,178.5C 113.912,176.384 111.912,176.051 109.5,177.5C 110.689,178.429 112.022,178.762 113.5,178.5C 111.393,179.468 109.059,179.802 106.5,179.5C 106.423,178.25 105.756,177.417 104.5,177C 103.83,174.666 103.83,172.166 104.5,169.5C 111.273,166.292 117.94,167.126 124.5,172C 123.655,173.558 124.321,174.558 126.5,175C 125.748,175.671 125.414,176.504 125.5,177.5 Z M 115.5,178.5 C 114.833,178.5 114.167,178.5 113.5,178.5C 112.022,178.762 110.689,178.429 109.5,177.5C 111.912,176.051 113.912,176.384 115.5,178.5 Z"/></g>
<g><path style="opacity:0.776" fill="#090e43" d="M 146.5,167.5 C 155.795,170.549 156.795,174.549 149.5,179.5C 147.971,177.684 146.304,177.017 144.5,177.5C 145.167,177.5 145.5,177.167 145.5,176.5C 147.199,176.66 148.866,176.494 150.5,176C 151.059,175.275 151.392,174.442 151.5,173.5C 150.057,171.287 148.391,169.287 146.5,167.5 Z"/></g>
<g><path style="opacity:1" fill="#050d70" d="M 145.5,167.5 C 145.833,167.5 146.167,167.5 146.5,167.5C 148.391,169.287 150.057,171.287 151.5,173.5C 151.392,174.442 151.059,175.275 150.5,176C 148.866,176.494 147.199,176.66 145.5,176.5C 144.054,175.387 142.387,175.22 140.5,176C 136.633,180.08 136.633,184.08 140.5,188C 141.333,188.167 142.167,188.333 143,188.5C 144.376,188.316 145.209,187.649 145.5,186.5C 146.167,186.833 146.833,187.167 147.5,187.5C 148.5,187.5 149.5,187.5 150.5,187.5C 151.167,189.5 151.833,191.5 152.5,193.5C 147.528,194.422 142.528,194.588 137.5,194C 136.347,192.117 134.681,191.284 132.5,191.5C 132.5,190.833 132.167,190.5 131.5,190.5C 129.249,183.49 130.582,177.323 135.5,172C 138.946,170.491 142.28,168.991 145.5,167.5 Z"/></g>
<g><path style="opacity:1" fill="#080f57" d="M 167.5,169.5 C 166.514,165.03 166.181,160.363 166.5,155.5C 164.167,155.5 161.833,155.5 159.5,155.5C 159.131,158.319 158.798,161.152 158.5,164C 158.755,166.156 159.422,168.156 160.5,170C 159.776,178.002 158.776,185.836 157.5,193.5C 157.333,180.829 157.5,168.162 158,155.5C 161.057,154.549 164.223,154.216 167.5,154.5C 167.5,159.5 167.5,164.5 167.5,169.5 Z"/></g>
<g><path style="opacity:0.004" fill="#000000" d="M 104.5,179.5 C 103.833,178.167 103.833,178.167 104.5,179.5 Z"/></g>
<g><path style="opacity:0.02" fill="#000033" d="M 141.5,178.5 C 142.833,179.167 142.833,179.167 141.5,178.5 Z"/></g>
<g><path style="opacity:0.114" fill="#060b49" d="M 54.5,185.5 C 54.5858,186.496 54.2524,187.329 53.5,188C 51.1902,188.497 48.8568,188.663 46.5,188.5C 45.6932,182.536 45.3599,176.536 45.5,170.5C 43.1667,170.5 40.8333,170.5 38.5,170.5C 38.0887,177.66 38.9221,184.66 41,191.5C 41.8333,192.333 42.6667,193.167 43.5,194C 46.8168,194.498 50.1501,194.665 53.5,194.5C 53.0825,195.222 52.4158,195.722 51.5,196C 43.9383,197.833 39.4383,194.667 38,186.5C 37.3333,180.833 37.3333,175.167 38,169.5C 40.9114,167.571 43.7447,167.404 46.5,169C 47.3089,174.417 47.8089,179.917 48,185.5C 50.1559,188.061 52.3226,188.061 54.5,185.5 Z"/></g>
<g><path style="opacity:1" fill="#050d6c" d="M 125.5,177.5 C 125.5,177.833 125.5,178.167 125.5,178.5C 124.806,183.805 124.472,189.138 124.5,194.5C 121.518,194.896 118.851,194.229 116.5,192.5C 113.553,194.704 110.22,195.704 106.5,195.5C 103.852,195.262 102.018,193.928 101,191.5C 99.5927,186.556 100.759,182.556 104.5,179.5C 105.167,179.5 105.833,179.5 106.5,179.5C 109.059,179.802 111.393,179.468 113.5,178.5C 114.167,178.5 114.833,178.5 115.5,178.5C 115.369,179.376 115.702,180.043 116.5,180.5C 117.452,178.955 117.785,177.288 117.5,175.5C 116.167,175.5 114.833,175.5 113.5,175.5C 113.5,174.167 113.5,172.833 113.5,171.5C 112.022,171.762 110.689,171.429 109.5,170.5C 111.765,169.353 114.098,169.186 116.5,170C 119.715,172.394 122.715,174.894 125.5,177.5 Z M 113.5,185.5 C 113.842,186.338 114.508,186.672 115.5,186.5C 114.477,189.38 112.81,189.88 110.5,188C 111.833,187.333 111.833,186.667 110.5,186C 111.448,185.517 112.448,185.351 113.5,185.5 Z"/></g>
<g><path style="opacity:1" fill="#030d71" d="M 167.5,169.5 C 168.167,169.5 168.833,169.5 169.5,169.5C 173.753,168.986 177.587,169.986 181,172.5C 182.339,179.426 182.839,186.426 182.5,193.5C 180.833,193.5 179.167,193.5 177.5,193.5C 177.666,189.154 177.499,184.821 177,180.5C 175.815,175.716 172.982,174.382 168.5,176.5C 168,177.5 167.5,178.5 167,179.5C 166.501,184.489 166.334,189.489 166.5,194.5C 163.5,194.5 160.5,194.5 157.5,194.5C 157.5,194.167 157.5,193.833 157.5,193.5C 158.776,185.836 159.776,178.002 160.5,170C 159.422,168.156 158.755,166.156 158.5,164C 158.798,161.152 159.131,158.319 159.5,155.5C 161.833,155.5 164.167,155.5 166.5,155.5C 166.181,160.363 166.514,165.03 167.5,169.5 Z"/></g>
<g><path style="opacity:0.508" fill="#0a1047" d="M 63.5,195.5 C 63.5,187.167 63.5,178.833 63.5,170.5C 60.8333,170.5 58.1667,170.5 55.5,170.5C 55.8205,175.695 55.4872,180.695 54.5,185.5C 54.5,179.833 54.5,174.167 54.5,168.5C 57.7766,168.216 60.9433,168.549 64,169.5C 64.8236,178.343 64.6569,187.01 63.5,195.5 Z"/></g>
<g><path style="opacity:0.008" fill="#000000" d="M 97.5,182.5 C 98.8333,183.167 98.8333,183.167 97.5,182.5 Z"/></g>
<g><path style="opacity:0.624" fill="#080e46" d="M 145.5,167.5 C 142.28,168.991 138.946,170.491 135.5,172C 130.582,177.323 129.249,183.49 131.5,190.5C 130.522,190.189 129.855,189.522 129.5,188.5C 129.528,185.003 129.694,181.336 130,177.5C 132.341,170.779 137.508,167.446 145.5,167.5 Z"/></g>
<g><path style="opacity:1" fill="#040644" d="M 145.5,176.5 C 144.833,176.5 144.5,176.833 144.5,177.5C 143.209,177.263 142.209,177.596 141.5,178.5C 138.472,180.339 137.972,182.672 140,185.5C 141.556,187.635 143.389,187.968 145.5,186.5C 145.209,187.649 144.376,188.316 143,188.5C 142.167,188.333 141.333,188.167 140.5,188C 136.633,184.08 136.633,180.08 140.5,176C 142.387,175.22 144.054,175.387 145.5,176.5 Z"/></g>
<g><path style="opacity:1" fill="#030d72" d="M 54.5,185.5 C 55.4872,180.695 55.8205,175.695 55.5,170.5C 58.1667,170.5 60.8333,170.5 63.5,170.5C 63.5,178.833 63.5,187.167 63.5,195.5C 60.8333,195.5 58.1667,195.5 55.5,195.5C 55.1583,194.662 54.4916,194.328 53.5,194.5C 50.1501,194.665 46.8168,194.498 43.5,194C 42.6667,193.167 41.8333,192.333 41,191.5C 38.9221,184.66 38.0887,177.66 38.5,170.5C 40.8333,170.5 43.1667,170.5 45.5,170.5C 45.3599,176.536 45.6932,182.536 46.5,188.5C 48.8568,188.663 51.1902,188.497 53.5,188C 54.2524,187.329 54.5858,186.496 54.5,185.5 Z"/></g>
<g><path style="opacity:1" fill="#0a1055" d="M 93.5,170.5 C 94.8321,171.83 95.6655,173.497 96,175.5C 96.6684,181.511 97.0018,187.511 97,193.5C 94.6137,195.091 91.947,196.091 89,196.5C 87.1919,194.967 86.6919,193.3 87.5,191.5C 88.404,192.209 88.7373,193.209 88.5,194.5C 90.8333,194.5 93.1667,194.5 95.5,194.5C 94.8347,187.857 94.3347,181.191 94,174.5C 91.4438,173.781 90.2771,172.114 90.5,169.5C 83.8407,169.954 77.1741,170.287 70.5,170.5C 70.5,178.167 70.5,185.833 70.5,193.5C 72.861,193.326 75.1944,192.993 77.5,192.5C 77.0899,186.379 77.5899,180.379 79,174.5C 79.3333,175.167 79.6667,175.833 80,176.5C 82.6667,175.167 85.3333,175.167 88,176.5C 88.8099,180.358 88.6433,184.024 87.5,187.5C 86.409,184.607 86.409,182.107 87.5,180C 86.6667,178.5 85.5,177.333 84,176.5C 83.0975,177.701 81.9308,178.535 80.5,179C 80.8333,179.333 81.1667,179.667 81.5,180C 79.8722,184.983 79.0389,190.15 79,195.5C 76.6307,195.323 74.1307,195.656 71.5,196.5C 70.646,195.478 69.646,194.645 68.5,194C 69.3173,185.912 69.8173,177.745 70,169.5C 71,168.833 72,168.167 73,167.5C 75.3225,167.331 77.6559,167.997 80,169.5C 80.3076,168.692 80.8076,168.025 81.5,167.5C 84.5,167.5 87.5,167.5 90.5,167.5C 91.2876,168.77 92.2876,169.77 93.5,170.5 Z"/></g>
<g><path style="opacity:1" fill="#040e75" d="M 87.5,191.5 C 87.5,190.167 87.5,188.833 87.5,187.5C 88.6433,184.024 88.8099,180.358 88,176.5C 85.3333,175.167 82.6667,175.167 80,176.5C 79.6667,175.833 79.3333,175.167 79,174.5C 77.5899,180.379 77.0899,186.379 77.5,192.5C 75.1944,192.993 72.861,193.326 70.5,193.5C 70.5,185.833 70.5,178.167 70.5,170.5C 77.1741,170.287 83.8407,169.954 90.5,169.5C 90.2771,172.114 91.4438,173.781 94,174.5C 94.3347,181.191 94.8347,187.857 95.5,194.5C 93.1667,194.5 90.8333,194.5 88.5,194.5C 88.7373,193.209 88.404,192.209 87.5,191.5 Z"/></g>
<g><path style="opacity:1" fill="#070a51" d="M 180.5,169.5 C 183.08,171.821 184.746,174.821 185.5,178.5C 184.559,184.007 184.392,189.674 185,195.5C 182.197,196.357 179.197,196.357 176,195.5C 175.803,190.914 175.303,186.414 174.5,182C 174.957,181.586 175.291,181.086 175.5,180.5C 172.07,174.865 169.57,175.198 168,181.5C 167.667,186.167 167.333,190.833 167,195.5C 164.107,195.317 161.107,195.651 158,196.5C 157.536,195.906 157.369,195.239 157.5,194.5C 160.5,194.5 163.5,194.5 166.5,194.5C 166.334,189.489 166.501,184.489 167,179.5C 167.5,178.5 168,177.5 168.5,176.5C 172.982,174.382 175.815,175.716 177,180.5C 177.499,184.821 177.666,189.154 177.5,193.5C 179.167,193.5 180.833,193.5 182.5,193.5C 182.839,186.426 182.339,179.426 181,172.5C 177.587,169.986 173.753,168.986 169.5,169.5C 170.152,168.275 171.319,167.608 173,167.5C 175.141,168.112 177.141,168.112 179,167.5C 179.278,168.416 179.778,169.082 180.5,169.5 Z"/></g>
<g><path style="opacity:0.284" fill="#060744" d="M 125.5,178.5 C 126.816,184.013 126.816,189.68 125.5,195.5C 119.252,194.336 112.919,194.336 106.5,195.5C 110.22,195.704 113.553,194.704 116.5,192.5C 118.851,194.229 121.518,194.896 124.5,194.5C 124.472,189.138 124.806,183.805 125.5,178.5 Z"/></g>
<g><path style="opacity:1" fill="#070843" d="M 132.5,191.5 C 134.681,191.284 136.347,192.117 137.5,194C 142.528,194.588 147.528,194.422 152.5,193.5C 151.833,191.5 151.167,189.5 150.5,187.5C 149.5,187.5 148.5,187.5 147.5,187.5C 148.002,185.915 149.002,185.415 150.5,186C 151.64,187.973 152.973,189.807 154.5,191.5C 153.359,192.425 153.359,193.259 154.5,194C 152.939,194.318 151.772,195.151 151,196.5C 146.17,196.457 141.337,196.457 136.5,196.5C 135.759,194.923 134.426,193.256 132.5,191.5 Z"/></g>
<g><path style="opacity:0.067" fill="#00001e" d="M 55.5,195.5 C 54.8333,196.167 54.8333,196.167 55.5,195.5 Z"/></g>
</svg>
